<svg width="72" height="416" viewBox="0 0 72 416" fill="none" xmlns="http://www.w3.org/2000/svg">
<path d="M36 1L35.9989 415" stroke="#B4B4B4" stroke-linecap="round"/>
<path d="M33.3333 55.9333C33.3333 57.4061 34.5272 58.6 36 58.6C37.4728 58.6 38.6667 57.4061 38.6667 55.9333C38.6667 54.4606 37.4728 53.2667 36 53.2667C34.5272 53.2667 33.3333 54.4606 33.3333 55.9333ZM0 56.4333H36V55.4333H0V56.4333Z" fill="#B4B4B4"/>
<path d="M33.3333 117.051C33.3333 118.524 34.5272 119.718 36 119.718C37.4728 119.718 38.6667 118.524 38.6667 117.051C38.6667 115.579 37.4728 114.385 36 114.385C34.5272 114.385 33.3333 115.579 33.3333 117.051ZM36 117.551H72V116.551H36V117.551Z" fill="#B4B4B4"/>
<path d="M33.3333 178.169C33.3333 179.642 34.5272 180.836 36 180.836C37.4728 180.836 38.6667 179.642 38.6667 178.169C38.6667 176.697 37.4728 175.503 36 175.503C34.5272 175.503 33.3333 176.697 33.3333 178.169ZM0 178.669H36V177.669H0V178.669Z" fill="#B4B4B4"/>
<path d="M33.3333 239.287C33.3333 240.76 34.5272 241.954 36 241.954C37.4728 241.954 38.6667 240.76 38.6667 239.287C38.6667 237.815 37.4728 236.621 36 236.621C34.5272 236.621 33.3333 237.815 33.3333 239.287ZM36 239.787H72V238.787H36V239.787Z" fill="#B4B4B4"/>
<path d="M33.3333 300.405C33.3333 301.878 34.5272 303.072 36 303.072C37.4728 303.072 38.6667 301.878 38.6667 300.405C38.6667 298.933 37.4728 297.739 36 297.739C34.5272 297.739 33.3333 298.933 33.3333 300.405ZM0 300.905H36V299.905H0V300.905Z" fill="#B4B4B4"/>
<path d="M33.3333 361.523C33.3333 362.996 34.5272 364.19 36 364.19C37.4728 364.19 38.6667 362.996 38.6667 361.523C38.6667 360.051 37.4728 358.857 36 358.857C34.5272 358.857 33.3333 360.051 33.3333 361.523ZM36 362.023H72V361.023H36V362.023Z" fill="#B4B4B4"/>
</svg>
