<?xml version="1.0" encoding="utf-8"?>
<!-- Generator: Adobe Illustrator 18.0.0, SVG Export Plug-In . SVG Version: 6.00 Build 0)  -->
<!DOCTYPE svg PUBLIC "-//W3C//DTD SVG 1.1//EN" "http://www.w3.org/Graphics/SVG/1.1/DTD/svg11.dtd">
<svg version="1.1" id="Capa_1" xmlns="http://www.w3.org/2000/svg" xmlns:xlink="http://www.w3.org/1999/xlink" x="0px" y="0px"
	 viewBox="0 0 68.2 41.7" enable-background="new 0 0 68.2 41.7" xml:space="preserve">
<g id="wfZE7t_2_">
	<g>
		<g>
			<path fill-rule="evenodd" clip-rule="evenodd" fill="#553A3A" d="M0,41.4c0.2-0.1,0.5-0.2,0.7-0.3c5.1-1.4,9.9-3.5,14.8-5.6
				c0.2-0.1,0.3-0.2,0.4-0.3c1.8-3.8,2.8-7.8,3.5-11.9c0-0.3-0.1-0.6-0.2-0.9c-0.3-0.5-0.3-1,0.1-1.4c0.3-0.3,0.8-0.3,1.2,0
				c0.4,0.3,0.4,0.9,0.1,1.3c-0.2,0.3-0.2,0.7-0.3,1c-0.3,1.2-0.5,2.4-0.7,3.7c0,0.1-0.1,0.3-0.1,0.5c0.7-0.8,1.4-1.6,2.1-2.3
				c0.1-0.1,0.1-0.3,0.1-0.5c0-0.5,0.4-0.8,0.9-0.8c0.5,0,0.8,0.4,0.8,0.9c0,0.5-0.3,0.8-0.8,0.9c-0.2,0-0.5,0.1-0.6,0.2
				c-1.4,1.4-2.6,3-3.4,4.8c-0.3,0.6-0.5,1.3-0.8,2c-0.3,0.7-0.6,1.4-0.9,2.1c6.2-2,11.7-5.4,17.3-8.7c-1.4-2.5-1.3-5.1-1.3-7.7
				c0-1.9,0.7-3.6,1.4-5.4c0.6-1.3,1.2-2.5,2.3-3.5C37,9,37.2,9,37.7,9.5c0.2,0.2,0.4,0.5,0.5,0.8c1.2,3.9,1.3,7.6-0.8,11.2
				c-0.6,1.1-1.2,2.2-1.9,3.4c0.1,0,0.2-0.1,0.2-0.1c4.2-2.7,8.4-5.5,11.8-9.2c0.3-0.3,0.4-0.6,0.3-1c-0.6-3,0-5.9,0.9-8.8
				c0.7-2,1.6-3.8,3-5.4c0.6-0.7,1.3-0.7,1.7,0.2c0.3,0.8,0.6,1.6,0.7,2.4c0.5,2.9,0,5.6-1.6,8.1c-0.1,0.2-0.2,0.4-0.4,0.6
				c0,0,0,0,0,0.2c0.2-0.1,0.4-0.2,0.5-0.3c4-2.4,8.3-3.2,12.9-2c0.8,0.2,1.6,0.7,2.3,1.1c0.4,0.2,0.4,0.5,0,0.7
				c-4.6,3.1-9.5,5.1-15.1,5.2c-1.5,0-3-0.4-4.4-0.9c-2.6,3-5.6,5.6-9.1,7.8c0.3,0,0.4,0.1,0.6,0.1c2.3,0,4.6-0.2,6.8-0.6
				c0.9-0.2,1.9-0.2,2.8-0.3c0.5,0,0.6-0.2,0.6-0.6c0-0.6,0.3-1,0.9-1.2c0.2,0,0.3-0.2,0.5-0.3c0.4-0.1,0.8-0.2,1.2-0.2
				c0.1,0,0.2,0.2,0.3,0.3C53,20.8,52.8,21,52.7,21c-0.4-0.1-0.7,0.1-1,0.4c-0.1,0.1-0.2,0.2-0.3,0.2c-0.6-0.1-0.7,0.4-0.6,0.8
				c0.1,0.6,0,1.4,0.4,1.8c0.4,0.5,0.8,1.1,1.6,1.3c0.2,0.1,0.4,0.2,0.6,0.4c0.3,0.4,0.6,0.5,1.1,0.4c0.4-0.1,0.8-0.2,1.3-0.3
				c-0.1,0.2-0.1,0.4-0.2,0.4c-0.6,0.6-1.9,0.6-2.5-0.1c-0.1-0.1-0.1-0.2-0.2-0.2c-0.6,0-0.9-0.6-1.4-0.8c-0.7-0.4-0.9-0.9-1.1-1.6
				c0-0.1-0.1-0.2-0.1-0.3c-2.2,0.2-4.4,0.5-6.7,0.7c1,0.5,1.9,0.8,2.8,1.3c1.4,0.8,2.8,1.6,4.2,2.4c0.2,0.1,0.5,0.1,0.7,0.1
				c0.2,0.1,0.3,0.2,0.4,0.2c-0.1,0.1-0.2,0.3-0.3,0.4c-0.9,0.4-1.2,1-0.8,1.9c0.4,0.9,1.3,1.1,2.2,0.6c0.5-0.3,0.8-1.5,0.4-2.1
				c-0.3-0.5-0.5-1-1.2-0.8c-0.1,0-0.1-0.1-0.2-0.1c0.3-0.5,1-0.7,1.3-0.3c0.4,0.5,0.7,1.1,0.9,1.6c0.2,1-0.8,2.7-2.2,2.6
				c-1.1-0.1-1.8-0.9-1.8-1.9c0-0.5,0-1.1,0-1.8c-0.6-0.4-1.4-1-2.2-1.4c-1.9-0.9-3.8-1.6-5.7-2.4c-1.2-0.4-2.4-0.4-3.6-0.2
				c-0.1,0-0.3,0.1-0.4,0.2c-3.7,2.6-7.6,4.8-11.5,7c0,0-0.1,0-0.1,0.1c0.2,0,0.3,0.1,0.4,0.1c1.6,0.1,3.2,0.2,4.7,0.3
				c0.4,0,0.7,0,1-0.2c1.3-1,2.8-1.4,4.5-1.5c1.9-0.1,3.8,0.1,5.7,0.9c1.9,0.8,3.8,1.7,5.4,3.1c0.1,0.1,0.3,0.2,0.4,0.4
				c0.3,0.4,0.2,0.6-0.3,0.7c-0.1,0-0.3,0.1-0.4,0.1c-4,2.1-8.2,2.3-12.4,0.6c-1.2-0.5-2-1.3-2.6-2.4c-0.4-0.6-0.7-0.9-1.4-0.9
				c-1.7-0.1-3.3-0.2-5-0.3c-1.1-0.1-2.1,0.3-3.1,0.8c-2.4,1-4.8,2-7.2,3c-3.5,1.5-7.1,3-10.6,4.3c-1.3,0.5-2.8,0.7-4.2,1
				c-0.3,0.1-0.6,0-0.9,0C0,41.5,0,41.4,0,41.4z M49.1,15.2c0.5,0.1,0.9,0.2,1.3,0.3c1.6,0.4,3.2,0.3,4.7,0.1
				c2.7-0.4,5.3-1.1,7.7-2.4c1.3-0.7,2.6-1.4,3.9-2.1c0-0.1,0-0.1,0-0.2c-0.4-0.2-0.8-0.3-1.2-0.5c-3.4-1.1-6.8-0.5-10.1,0.6
				c-2,0.7-3.6,2-5.2,3.2C49.9,14.6,49.6,14.9,49.1,15.2z M47.3,34.9c-0.3-0.3-0.5-0.4-0.6-0.5c-1.4-0.8-2.7-1.6-4.1-2.3
				c-2.5-1.1-5-1.3-7.7-0.7c-0.8,0.2-1.5,0.6-2.2,0.9c0.5,1.3,1.8,2.7,3,3.1c2.7,1,5.4,1.5,8.2,0.7C44.9,35.7,46,35.3,47.3,34.9z
				 M34.3,25.2c0.1-0.1,0.1-0.1,0.2-0.2c0.8-1.5,1.7-3,2.4-4.5c0.5-1,0.9-2.1,1.1-3.2c0.5-2.4,0-4.8-0.6-7.1c0-0.1-0.1-0.2-0.1-0.2
				C34,13,32.5,20.2,34.3,25.2z M52.7,0.8c-3.3,4.1-4.6,8.7-4.2,13.9c1.3-0.7,4.3-5,4.7-7C53.6,5.4,53.6,3.1,52.7,0.8z"/>
			<path fill-rule="evenodd" clip-rule="evenodd" fill="#553A3A" d="M53.5,20.7c0.2-0.1,0.5-0.3,0.7-0.4c0.5-0.2,1.4-0.1,1.8,0.3
				c0.1,0.1,0.1,0.2,0.3,0.3c1,0.4,1.4,1.2,1.1,2.3c-0.1,0.5-0.2,1-0.3,1.4c0,0.1-0.3,0.1-0.4,0.2c0-0.2-0.1-0.4,0-0.5
				c0.5-0.7,0-1.4,0.1-2.1c0.1-0.3-0.2-0.7-0.7-0.7c-0.1,0-0.3-0.1-0.4-0.3c-0.3-0.5-0.7-0.6-1.3-0.5C53.9,21,53.7,21,53.5,20.7z"/>
			<path fill-rule="evenodd" clip-rule="evenodd" fill="#553A3A" d="M56.7,25c0,0.6-0.3,0.9-0.7,1.1c-0.1,0-0.2,0-0.3-0.1
				c0,0,0-0.2,0.1-0.2C56.1,25.5,56.4,25.3,56.7,25z"/>
		</g>
	</g>
</g>
</svg>
